<?xml version="1.0" encoding="UTF-8"?>
<!DOCTYPE svg  PUBLIC '-//W3C//DTD SVG 20010904//EN'  'http://www.w3.org/TR/2001/REC-SVG-20010904/DTD/svg10.dtd'>
<svg version="1.0" viewBox="0 0 256 256" xmlns="http://www.w3.org/2000/svg">
<g transform="translate(0 256) scale(.05 -.05)">
<path d="m2431 4745c-54-129-142-339-195-467l-98-232-374-24c-206-13-408-25-449-26-108-3-109-1 280-325 195-162 357-301 360-308 3-8-43-211-103-453-59-242-105-443-101-447s179 106 389 245 387 252 393 252 182-113 392-251c209-138 383-248 387-244 6 6-172 757-203 859-8 24 86 115 350 337 199 167 361 310 361 318 0 7-200 25-445 39s-446 27-448 29-86 201-187 443-190 451-197 465c-8 14-56-77-112-210z"/>
<path d="m300 3313v-248l935-758 935-759 20-1418 310-12v840 839l-1090 881c-599 485-1094 882-1100 882-5 0-10-111-10-247z"/>
<path d="m3710 2683-1080-875-10-1688h147c187 0 172-65 173 761v670l940 759 940 758v246c0 135-7 246-15 245-8 0-501-395-1095-876z"/>
<path d="m3815 2035-795-642v-187-187l575 463c316 256 676 546 800 645l225 181v186c0 102-2 186-5 185-3 0-363-290-800-644z"/>
<path d="m485 2495c-7-205-103-106 785-814 418-334 776-620 795-637 33-28 35-19 35 158v188l-780 626c-429 344-792 630-805 635-18 7-26-35-30-156z"/>
<path d="m840 1754v-170l614-497c338-273 621-500 630-504 9-3 16 69 15 160v167l-522 420c-286 231-569 459-629 507l-108 86v-169z"/>
<path d="m3645 1417-625-502v-169-169l55 43c30 24 314 252 630 506l575 463v165c0 91-2 166-5 166s-287-226-630-503z"/>
<path d="m1200 1025c0-164-51-108 495-543l405-322-2 310-428 340c-511 406-470 387-470 215z"/>
<path d="m3454 815-434-345v-155-156l440 353 440 352v148c0 81-3 148-6 148-4 0-202-155-440-345z"/>
</g>
</svg>
