<?xml version="1.0" encoding="UTF-8"?>
<!DOCTYPE svg  PUBLIC '-//W3C//DTD SVG 20010904//EN'  'http://www.w3.org/TR/2001/REC-SVG-20010904/DTD/svg10.dtd'>
<svg width="256pt" height="256pt" version="1.0" viewBox="0 0 256 256" xmlns="http://www.w3.org/2000/svg">
<g transform="translate(0 256) scale(.1 -.1)">
<path d="m1215 2443c-84-76-251-185-380-249-182-89-364-140-534-151l-84-6 7-146c24-511 151-908 404-1266 122-172 382-406 585-527l67-40 86 53c610 383 943 990 971 1767l6 162h-58c-73 0-281 42-377 76-184 65-405 191-558 319l-75 63-60-55zm123-114c218-195 598-359 833-359h59l2-47c4-132-15-337-47-494-67-327-211-629-414-866-113-132-305-290-447-369l-50-28-63 38c-424 258-712 672-825 1186-13 63-27 138-31 165-15 130-25 257-25 326 0 85 3 89 81 89 54 0 188 27 276 56 170 55 409 192 538 308 28 25 52 45 53 46 2 0 29-23 60-51z"/>
<path d="m1178 2170c-211-171-418-260-649-278l-94-7-3-70c-11-231 73-598 192-835 132-264 342-497 591-655l60-38 40 23c312 176 575 507 699 880 61 184 106 455 102 625l-1 70-95 7c-231 17-446 112-660 291-44 37-81 67-83 67-1-1-46-37-99-80zm241-228c23-11 38-27 42-45 4-16 5-27 1-25-68 37-92 42-182 42-89 0-118-7-181-41-18-10 7 50 26 63 56 36 226 40 294 6zm-39-74c19-6 45-17 58-24l22-14v-385-385l-27-11c-41-16-306-8-326 10-15 12-17 52-17 386 0 411-4 389 65 415 70 27 149 30 225 8zm-322-50c-2-15-11-23-33-25-16-2-43-11-59-19s-30-14-31-14 0 11 2 24c5 26 57 55 101 55 18 1 23-4 20-21zm540-4c12-8 22-24 22-35 0-17-3-18-22-8-13 7-39 15-58 18-27 5-36 12-38 30-4 22-2 23 35 17 21-4 48-14 61-22zm-538-384v-330h-39c-22 0-51 4-65 10l-26 10v293c0 276 1 295 19 311 19 18 62 34 94 35 16 1 17-21 17-329zm530 306 25-11 3-306 2-307-22-6c-13-3-40-6-60-6h-38v331 331l33-7c17-4 43-12 57-19zm-584-686h44v-120-121l-37 7c-86 16-83 11-83 135 0 97 2 110 16 105 9-3 36-6 60-6zm624-99v-109l-27-10c-16-6-43-14-60-17l-33-7v121 120l53 4c28 2 55 4 60 5 4 1 7-47 7-107zm-355 34c39 0 100 3 136 7 64 7 66 6 64-15-1-12-3-72-4-133l-1-112-42-17c-60-24-237-24-295 0l-43 17v103c0 56-3 117-6 134l-6 31 63-8c35-4 96-7 134-7zm-341-180c11-8 41-18 68-21 38-5 48-10 48-25 0-22-8-23-70-8-47 11-80 33-80 56 0 17 10 16 34-2zm716-5c0-23-38-45-97-55-38-6-43-5-43 13 0 16 9 21 48 26 27 3 57 13 68 21 24 18 24 19 24-5zm-518-125c61-18 219-20 283-4 24 6 52 19 64 30 28 26 39 4 14-29-11-15-39-33-64-40-58-18-231-20-291-3-55 16-94 52-84 78 7 17 8 17 17 1 5-10 33-24 61-33z"/>
</g>
</svg>
